<svg width="1920" height="1080" viewBox="0 0 1920 1080" xmlns="http://www.w3.org/2000/svg"><rect width="1920" height="1080" fill="#ecefef"/><path d="M 0,1080 C 0,1080 0,360 0,360 C 144.18888070692194,271.55025773195877 288.37776141384387,183.10051546391753 359,228 C 429.62223858615613,272.89948453608247 426.6778350515465,451.1481958762887 507,487 C 587.3221649484535,522.8518041237113 750.9108983799706,416.3067010309278 846,410 C 941.0891016200294,403.6932989690722 967.6785714285711,497.625 1057,477 C 1146.321428571429,456.375 1298.3748159057438,321.1932989690721 1398,266 C 1497.6251840942562,210.80670103092788 1544.8221649484535,235.60180412371136 1660,294 C 1775.1778350515465,352.39819587628864 1958.3365243004419,444.39948453608247 2013,461 C 2067.663475699558,477.60051546391753 1993.831737849779,418.80025773195877 1920,360 C 1920,360 1920,1080 1920,1080 Z" fill="#c7caca" opacity="0.19999999999999998"/><path d="M 0,1080 C 0,1080 0,720 0,720 C 113.57032400589102,757.2146539027982 227.14064801178205,794.4293078055964 315,781 C 402.85935198821795,767.5706921944036 465.00773195876286,703.4974226804125 532,695 C 598.9922680412371,686.5025773195875 670.8284241531663,733.581001472754 785,708 C 899.1715758468337,682.418998527246 1055.6785714285713,584.1785714285714 1174,585 C 1292.3214285714287,585.8214285714286 1372.4572901325478,685.7047128129601 1457,750 C 1541.5427098674522,814.2952871870399 1630.492268041237,843.0025773195878 1730,847 C 1829.507731958763,850.9974226804122 1939.573637702504,830.2849779086891 1973,805 C 2006.426362297496,779.7150220913109 1963.213181148748,749.8575110456554 1920,720 C 1920,720 1920,1080 1920,1080 Z" fill="#c7caca" opacity="0.39999999999999997"/></svg>